<?xml version="1.0" encoding="UTF-8" standalone="no"?>
<!-- Created with Inkscape (http://www.inkscape.org/) -->

<svg
   xmlns:dc="http://purl.org/dc/elements/1.1/"
   xmlns:cc="http://creativecommons.org/ns#"
   xmlns:rdf="http://www.w3.org/1999/02/22-rdf-syntax-ns#"
   xmlns:svg="http://www.w3.org/2000/svg"
   xmlns="http://www.w3.org/2000/svg"
   xmlns:sodipodi="http://sodipodi.sourceforge.net/DTD/sodipodi-0.dtd"
   xmlns:inkscape="http://www.inkscape.org/namespaces/inkscape"
   width="210mm"
   height="297mm"
   id="svg2"
   version="1.1"
   inkscape:version="0.48.4 r9939"
   sodipodi:docname="Nouveau document 1">
  <defs
     id="defs4" />
  <sodipodi:namedview
     id="base"
     pagecolor="#ffffff"
     bordercolor="#666666"
     borderopacity="1.0"
     inkscape:pageopacity="0.0"
     inkscape:pageshadow="2"
     inkscape:zoom="0.35"
     inkscape:cx="-403.3356"
     inkscape:cy="298.03416"
     inkscape:document-units="px"
     inkscape:current-layer="layer1"
     showgrid="false"
     inkscape:window-width="1366"
     inkscape:window-height="688"
     inkscape:window-x="0"
     inkscape:window-y="25"
     inkscape:window-maximized="1" />
  <metadata
     id="metadata7">
    <rdf:RDF>
      <cc:Work
         rdf:about="">
        <dc:format>image/svg+xml</dc:format>
        <dc:type
           rdf:resource="http://purl.org/dc/dcmitype/StillImage" />
        <dc:title></dc:title>
      </cc:Work>
    </rdf:RDF>
  </metadata>
  <g
     inkscape:label="Calque 1"
     inkscape:groupmode="layer"
     id="layer1">
    <path
       style="fill:#000000"
       d="m 342.46051,511.24572 c -1.925,-0.22449 -7.775,-0.89635 -13,-1.49302 C 227.55324,498.11548 141.00484,418.83188 120.0649,317.93358 c -4.2219,-20.34303 -5.05335,-28.75167 -5.05335,-51.10515 0,-22.35348 0.83145,-30.76212 5.05335,-51.10515 17.63719,-84.98413 81.93808,-155.879946 165.32928,-182.286066 25.09839,-7.94749 45.93136,-11.05776 74.06633,-11.05776 22.35348,0 30.76212,0.83146 51.10515,5.05336 68.57859,14.23247 129.24965,59.42806 163.63405,121.895616 14.53398,26.40448 23.99888,55.57159 28.39429,87.5 1.68973,12.27432 1.68973,47.72568 0,60 -7.68639,55.83424 -31.47791,104.34442 -70.13349,143 -37.88125,37.88125 -85.58826,61.67802 -139.5,69.58411 -9.73293,1.42732 -43.47675,2.65224 -50.5,1.83318 z m 74.3826,-136.66729 c 7.4681,-7.62625 90.22706,-100.14103 91.33196,-102.09838 0.66802,-1.18339 1.23052,-3.83514 1.25,-5.89278 0.0404,-4.26293 5.55022,2.24339 -56.36072,-66.55381 -25.81923,-28.69106 -38.8434,-42.44149 -40.86853,-43.14746 -8.16943,-2.84787 -16.97397,5.98296 -13.91129,13.95284 0.52619,1.36927 17.65604,21.05118 38.06634,43.73756 20.4103,22.68638 37.10964,41.47388 37.10964,41.75 0,0.27612 -56.7,0.50203 -126,0.50203 l -126,0 0,-33.77749 c 0,-36.9817 0.0594,-36.58907 -6.01104,-39.72822 -3.66479,-1.89513 -6.32475,-1.88912 -10.02169,0.0226 -6.20438,3.20845 -5.96727,-0.1611 -5.96727,84.79859 l 0,77.4148 2.1679,2.75604 c 2.53309,3.22031 7.94099,5.74442 10.5262,4.91307 9.3922,-3.02036 9.3059,-2.6369 9.3059,-41.34973 l 0,-33.04966 126.01892,0 126.01892,0 -37.12752,41.22053 c -20.42013,22.6713 -37.5585,42.35411 -38.08526,43.7396 -2.61392,6.87512 2.92384,14.03987 10.85167,14.03987 3.78367,0 5.04366,-0.53141 7.70587,-3.25 z"
       id="path2996"
       inkscape:connector-curvature="0" />
    <path
       style="fill:#000000"
       d="m 351.70568,1033.1296 c -1.925,-0.2245 -7.775,-0.8963 -13,-1.493 -29.86055,-3.4099 -63.58368,-14.4261 -90,-29.3998 -70.74155,-40.09894 -116.92476,-111.81654 -123.9779,-192.52444 -6.87122,-78.6262 25.39624,-157.03269 85.4779,-207.7022 111.14712,-93.73526 277.59971,-71.53119 360.31975,48.06513 21.85604,31.59943 35.73114,68.08476 41.31374,108.63707 1.6897,12.27432 1.6897,47.72568 0,60 -7.7588,56.35986 -31.1524,104.09972 -70.09307,143.04042 -38.21277,38.21274 -85.04255,61.55162 -139.54042,69.54362 -9.73293,1.4274 -43.47675,2.6523 -50.5,1.8332 z m 74.34887,-159.91442 c 2.33705,-1.11039 10.38479,-11.54148 31.15113,-40.37657 l 28,-38.8794 0.5,26.46025 0.5,26.46025 3.26578,2.91633 c 4.78288,4.27109 10.25797,4.09257 14.83422,-0.48368 l 3.4,-3.4 0,-57.2 0,-57.2 -3.4,-3.4 c -4.57625,-4.57625 -10.05134,-4.75477 -14.83422,-0.48368 l -3.26578,2.91633 -0.5,26.49062 -0.5,26.49063 -28.32996,-39.35579 c -24.58703,-34.15614 -28.78576,-39.50621 -31.77987,-40.49436 -3.82377,-1.26195 -8.35773,-0.20807 -11.55568,2.68603 -2.06049,1.86472 -3.32581,7.28408 -2.47342,10.59365 0.31966,1.24111 10.00122,15.30657 21.51458,31.25657 l 20.9334,29 -113.69876,0.5 c -105.19991,0.46263 -113.89434,0.62816 -116.31528,2.21458 -5.71071,3.74216 -5.71071,13.82868 0,17.57084 2.42094,1.58642 11.11538,1.75195 116.31563,2.21458 l 113.6991,0.5 -18.04525,25 c -24.71276,34.23718 -24.76449,34.31586 -24.76449,37.66187 0,4.35532 2.70924,8.80635 6.31471,10.37447 4.10282,1.78444 5.21658,1.78031 9.03416,-0.0335 z"
       id="path3020"
       inkscape:connector-curvature="0" />
  </g>
</svg>
